<svg xmlns="http://www.w3.org/2000/svg" width="23.384" height="15.455" viewBox="0 0 23.384 15.455">
  <g id="Grupo_13" data-name="Grupo 13" transform="translate(0.281 0.25)">
    <path id="Icon_metro-chevron-thin-right" data-name="Icon metro-chevron-thin-right" d="M18.067,11.178,11.858,4.727a.606.606,0,0,1,0-.851.592.592,0,0,1,.843,0l6.808,6.876a.606.606,0,0,1,0,.851L12.7,18.478a.591.591,0,0,1-.843,0,.606.606,0,0,1,0-.851l6.209-6.449Z" transform="translate(3.118 -3.7)" fill="#f5f5f5" stroke="#f5f5f5" stroke-width="0.5"/>
    <path id="Icon_metro-chevron-thin-right-2" data-name="Icon metro-chevron-thin-right" d="M16.006,8.764,11.8,4.4a.41.41,0,0,1,0-.576.4.4,0,0,1,.57,0l4.61,4.656a.41.41,0,0,1,0,.576l-4.61,4.656a.4.4,0,0,1-.57,0,.41.41,0,0,1,0-.576l4.2-4.367Z" transform="translate(-5.59 -1.285)" fill="#f5f5f5" stroke="#f5f5f5" stroke-width="0.5" opacity="0.6"/>
    <path id="Icon_metro-chevron-thin-right-3" data-name="Icon metro-chevron-thin-right" d="M14.559,7.068l-2.8-2.906a.273.273,0,0,1,0-.383.267.267,0,0,1,.38,0l3.067,3.1a.273.273,0,0,1,0,.383l-3.067,3.1a.266.266,0,0,1-.38,0,.273.273,0,0,1,0-.383l2.8-2.9Z" transform="translate(-11.683 0.41)" fill="#f5f5f5" stroke="#f5f5f5" stroke-width="0.5" opacity="0.25"/>
  </g>
</svg>
